<?xml version="1.0" encoding="UTF-8"?>
<svg xmlns="http://www.w3.org/2000/svg" xmlns:xlink="http://www.w3.org/1999/xlink" viewBox="0 0 250 250" width="250px" height="250px">
<g id="surface2557865">
<path style=" stroke:none;fill-rule:nonzero;fill:rgb(5.490196%,29.019609%,45.09804%);fill-opacity:1;" d="M 125 10 C 61.589844 10 10 61.585938 10 125 C 10 188.414062 61.589844 240 125 240 C 188.414062 240 240 188.414062 240 125 C 240 61.585938 188.414062 10 125 10 Z M 160 80 L 143.550781 80 C 133.859375 80 130 82.273438 130 89.03125 L 130 105 L 160 105 L 155 130 L 130 130 L 130 195 L 100 195 L 100 130 L 85 130 L 85 105 L 100 105 L 100 91.128906 C 100 70.003906 108.429688 55 132.90625 55 C 146.015625 55 160 60 160 60 Z M 160 80 "/>
</g>
</svg>
