<?xml version="1.0" encoding="UTF-8"?>
<svg xmlns="http://www.w3.org/2000/svg" xmlns:xlink="http://www.w3.org/1999/xlink" viewBox="0 0 256 256" width="256px" height="256px">
<g id="surface2582783">
<path style=" stroke:none;fill-rule:nonzero;fill:rgb(92.54902%,23.921569%,16.862746%);fill-opacity:1;" d="M 40 40 L 40 216 L 216 216 L 216 40 Z M 56 56 L 200 56 L 200 200 L 56 200 Z M 128 88.640625 C 128 88.640625 92.875 88.632812 84.234375 90.953125 C 79.433594 92.3125 75.59375 96.074219 74.3125 100.953125 C 71.992188 109.671875 72 128.078125 72 128.078125 C 72 128.078125 71.992188 146.480469 74.3125 155.28125 C 75.59375 160.082031 79.433594 163.765625 84.234375 165.046875 C 92.875 167.367188 128 167.359375 128 167.359375 C 128 167.359375 163.125 167.367188 171.765625 165.046875 C 176.566406 163.6875 180.40625 160.082031 181.6875 155.203125 C 184.007812 146.484375 184 128.078125 184 128.078125 C 184 128.078125 184.007812 109.753906 181.6875 100.953125 C 180.40625 96.074219 176.566406 92.3125 171.765625 90.953125 C 163.125 88.632812 128 88.640625 128 88.640625 Z M 112 105.25 L 152 128.09375 L 112 150.828125 Z M 112 105.25 "/>
</g>
</svg>
